<svg version="1.1" id="Layer_1" xmlns="http://www.w3.org/2000/svg" xmlns:xlink="http://www.w3.org/1999/xlink" x="0px" y="0px"
	 width="100%" viewBox="0 0 1024 1024" enable-background="new 0 0 1024 1024" xml:space="preserve">
<path fill="#000000" opacity="1.000000" stroke="none" 
	d="
M387.884460,432.925476 
	C414.684875,398.502014 449.198456,377.188110 492.062164,371.155396 
	C531.972900,365.538269 569.380798,373.954437 602.792847,396.914795 
	C639.586670,422.199097 661.848633,457.236450 669.929138,501.143890 
	C671.767456,511.133270 672.444031,521.292114 672.135437,531.478149 
	C671.920105,538.583618 667.689758,543.213318 661.323669,543.370056 
	C654.396545,543.540649 650.057861,539.407471 649.934753,531.736145 
	C649.774231,521.729797 649.308533,511.813873 647.247742,501.963745 
	C643.520081,484.146515 636.876099,467.555969 626.528687,452.608307 
	C602.920410,418.504242 570.366882,398.205536 529.257141,393.610260 
	C464.955902,386.422607 405.146057,425.588959 384.456451,487.798584 
	C360.895508,558.641663 397.747009,637.829102 471.110077,662.420105 
	C521.532654,679.321533 566.955383,667.659790 606.242249,632.003418 
	C613.554199,625.367188 622.145508,626.870544 625.487610,635.605164 
	C627.356812,640.490295 625.454956,644.340820 622.016418,647.728943 
	C601.343079,668.098816 576.856445,681.675476 548.640381,688.300415 
	C477.263245,705.059265 403.473541,669.922546 371.189667,602.020264 
	C343.136047,543.015381 349.800934,486.321564 387.884460,432.925476 
z"/>
<path fill="#000000" opacity="1.000000" stroke="none" 
	d="
M270.437439,274.527039 
	C281.651520,305.659088 309.984802,326.172516 340.729187,325.689240 
	C342.387329,325.663208 344.064606,325.550049 345.693726,325.258423 
	C348.928406,324.679413 351.886841,325.178772 353.537659,328.171326 
	C355.337006,331.433167 354.498779,334.645874 352.053162,337.379547 
	C343.169159,347.309967 332.947357,355.525879 320.605713,360.722687 
	C267.382141,383.134003 207.694763,350.722626 197.019150,293.700012 
	C187.294098,241.754730 224.297180,189.979736 276.279053,182.944290 
	C280.214722,182.411621 284.263794,182.659775 288.260376,182.652252 
	C291.446106,182.646255 294.238464,183.491669 295.409271,186.911682 
	C296.556793,190.263641 295.054321,192.887726 292.631653,194.848480 
	C287.517578,198.987473 283.368042,203.911362 279.756653,209.360291 
	C266.422394,229.479233 263.022552,251.031906 270.437439,274.527039 
z"/>
<path fill="#000000" opacity="1.000000" stroke="none" 
	d="
M771.315186,244.512894 
	C797.856506,251.525284 814.503967,276.640869 811.091370,304.001556 
	C807.869934,329.829437 784.965820,349.562195 757.850220,349.236603 
	C736.410461,348.979126 720.284180,338.726746 711.084717,319.701630 
	C701.453552,299.783539 703.389771,279.870361 717.736084,262.628662 
	C731.492981,246.095276 749.485291,239.681610 771.315186,244.512894 
z"/>
<path fill="#000000" opacity="1.000000" stroke="none" 
	d="
M310.058075,768.861816 
	C319.211151,768.858887 327.874634,768.946350 336.535583,768.835754 
	C352.724365,768.629150 365.560364,755.309448 365.669556,738.733398 
	C365.775421,722.664001 352.846344,709.488464 336.628662,709.191650 
	C333.800079,709.139954 330.964569,709.401855 328.137970,709.320374 
	C323.647552,709.190979 321.037231,706.958801 320.717346,702.302307 
	C319.346283,682.346191 302.721619,660.620728 275.669647,660.591736 
	C253.651169,660.568176 236.029831,674.062927 230.235489,695.791809 
	C227.444717,706.257263 227.541718,706.036072 216.952606,707.398926 
	C202.094833,709.311218 189.282623,721.396729 190.162903,739.794556 
	C190.877029,754.720032 203.629318,768.168518 218.712250,768.734802 
	C227.528839,769.065735 236.368378,768.734009 245.195053,768.867249 
	C250.981323,768.954590 254.400497,772.240723 254.259293,777.232422 
	C254.150894,781.063660 252.252625,784.121155 248.458069,784.147705 
	C235.830826,784.236328 223.086441,785.797485 210.591293,783.323669 
	C189.811142,779.209656 174.605484,759.493530 174.702377,737.590942 
	C174.799484,715.643677 189.834625,696.745239 210.739182,692.585815 
	C214.116531,691.913757 215.732162,690.412292 216.792496,687.111572 
	C224.910782,661.839722 250.051392,644.153259 276.632202,644.769104 
	C303.486084,645.391296 327.257690,664.001648 334.140289,689.994324 
	C334.822174,692.569580 335.806610,693.663513 338.455261,693.637207 
	C358.608734,693.437195 377.908508,711.579468 380.523407,732.686340 
	C383.478729,756.541138 369.088409,778.305969 345.729095,783.639709 
	C337.092712,785.611755 328.156158,784.512695 319.359680,784.804016 
	C313.712891,784.991028 308.043152,784.597168 302.387451,784.370605 
	C297.692291,784.182556 294.936829,781.637146 294.752777,777.507080 
	C294.558899,773.156067 297.236450,769.642151 301.586365,769.056152 
	C304.207794,768.702942 306.904449,768.908447 310.058075,768.861816 
z"/>
<path fill="#000000" opacity="1.000000" stroke="none" 
	d="
M413.461121,875.738586 
	C392.754883,869.012756 373.293915,860.441040 354.610535,850.068604 
	C350.799011,847.952698 347.564026,845.566284 347.463989,840.695312 
	C347.295074,832.468506 355.092712,827.891113 362.410980,832.124756 
	C376.424011,840.231445 390.952026,847.206665 406.141266,852.815002 
	C429.980530,861.617249 454.524475,867.253296 479.818176,869.852722 
	C498.264099,871.748535 516.724976,872.234558 535.152649,870.516235 
	C574.184937,866.876587 611.237061,856.236023 645.990540,837.921448 
	C650.114502,835.748230 654.172241,833.449097 658.299561,831.282532 
	C663.448120,828.579834 668.873230,830.076111 671.652954,834.886108 
	C674.446228,839.719299 672.973145,845.175537 667.823730,848.133423 
	C630.266174,869.707336 590.108337,883.440979 546.986938,888.408020 
	C501.697357,893.624878 457.321503,889.586426 413.461121,875.738586 
z"/>
<path fill="#000000" opacity="1.000000" stroke="none" 
	d="
M142.717682,461.929535 
	C148.209442,425.853729 158.702057,391.802277 174.797043,359.507141 
	C177.985687,353.109009 183.426697,350.693787 188.949570,353.342712 
	C194.263046,355.891266 195.956665,361.603882 192.834457,367.904816 
	C179.825562,394.158051 170.412109,421.620544 164.841019,450.383698 
	C158.784821,481.651337 157.594193,513.111938 161.098907,544.776184 
	C164.506653,575.564270 172.438370,605.174133 183.784790,633.934753 
	C186.439941,640.664917 184.408051,646.348083 178.815750,648.492676 
	C173.154083,650.663818 168.144028,647.860352 165.352463,640.917053 
	C153.060303,610.343323 144.753998,578.690857 141.010040,545.980957 
	C137.818466,518.097046 138.287247,490.163483 142.717682,461.929535 
z"/>
<path fill="#000000" opacity="1.000000" stroke="none" 
	d="
M865.055237,509.000153 
	C864.748047,471.719727 858.462585,435.990509 846.161316,401.327576 
	C845.025024,398.125702 844.038574,395.010956 845.628906,391.667755 
	C847.460510,387.817444 850.493835,385.754822 854.710876,385.801727 
	C859.077820,385.850281 861.785034,388.458679 863.246460,392.350525 
	C868.050537,405.144379 871.969116,418.216919 875.073853,431.520630 
	C882.380127,462.826996 885.622681,494.571442 884.169006,526.681396 
	C882.493896,563.681946 874.997620,599.573547 862.206726,634.343872 
	C860.425476,639.185974 858.685913,644.050781 856.680847,648.801147 
	C854.109558,654.893127 848.800049,657.199036 843.389648,654.838501 
	C838.323669,652.628235 836.414795,647.210327 838.779541,641.313171 
	C848.347107,617.453613 855.802002,592.946960 860.237305,567.632568 
	C863.600098,548.438965 865.302734,529.031067 865.055237,509.000153 
z"/>
<path fill="#000000" opacity="1.000000" stroke="none" 
	d="
M443.822968,523.521484 
	C450.424835,520.234009 455.716888,521.800232 460.444885,526.582581 
	C469.345886,535.585999 478.335632,544.501953 487.207977,553.533325 
	C488.476715,554.824829 489.295990,556.557922 490.661438,557.786621 
	C493.629761,556.541809 494.814148,554.604553 496.291870,553.113159 
	C521.150146,528.025635 545.980713,502.910675 570.798706,477.783203 
	C574.590515,473.944061 578.849060,471.078613 584.498047,472.207489 
	C589.027954,473.112701 592.392761,475.871216 593.728455,480.436707 
	C595.197144,485.456879 594.130249,489.956940 590.324219,493.736542 
	C578.739380,505.240814 567.119568,516.711121 555.637024,528.316895 
	C537.946838,546.197083 520.368469,564.187866 502.723846,582.113220 
	C495.382019,589.571838 487.900604,589.684082 480.602234,582.359497 
	C467.902954,569.614502 455.212463,556.859741 442.635590,543.994507 
	C435.991089,537.197693 436.418671,529.749329 443.822968,523.521484 
z"/>
<path fill="#000000" opacity="1.000000" stroke="none" 
	d="
M806.609253,728.351440 
	C803.729065,723.148193 804.330444,720.433167 808.906738,716.370667 
	C816.658081,709.489197 828.855286,708.440186 837.813416,713.884521 
	C846.958374,719.442444 852.120300,731.421143 849.707092,741.484985 
	C846.649719,754.234924 836.525635,761.809998 821.897461,761.865112 
	C790.735352,761.982483 759.572571,761.942200 728.410095,761.952026 
	C700.247253,761.960876 672.084473,761.950562 643.921631,761.948303 
	C643.255127,761.948303 642.586914,761.972717 641.922302,761.936096 
	C636.357727,761.629272 632.895081,758.830750 632.838928,754.609070 
	C632.781067,750.258240 636.552490,746.986938 642.159790,746.966858 
	C664.156616,746.887878 686.153870,746.919495 708.150940,746.916992 
	C746.479248,746.912659 784.807556,746.887939 823.135742,746.945557 
	C827.749146,746.952515 831.768921,745.984375 834.416321,741.907776 
	C837.465698,737.212219 836.658630,731.046448 832.635498,727.377930 
	C828.309204,723.432983 822.422913,723.195374 817.608337,727.093018 
	C814.243469,729.817078 810.997375,731.728760 806.609253,728.351440 
z"/>
<path fill="#000000" opacity="1.000000" stroke="none" 
	d="
M774.646912,704.612244 
	C783.815063,692.021423 779.211121,678.668945 764.734741,674.895508 
	C758.246582,673.204285 750.370300,676.639648 745.792358,683.192993 
	C745.031189,684.282593 744.513672,685.558960 743.670471,686.571533 
	C741.111511,689.644226 737.867798,690.539124 734.329346,688.578125 
	C730.725037,686.580505 729.665894,683.205444 731.436279,679.597961 
	C737.372803,667.501038 747.294189,660.660645 760.670349,660.170288 
	C772.878967,659.722778 782.740234,665.261780 788.970276,675.808777 
	C802.126404,698.081238 787.026917,724.698730 761.076538,724.898071 
	C728.265442,725.150146 695.450806,724.952820 662.637695,724.923340 
	C656.396973,724.917786 652.952820,722.462524 652.809204,718.085327 
	C652.657410,713.462219 656.249939,710.657166 662.601379,710.652649 
	C694.914795,710.629639 727.228516,710.585205 759.541443,710.709106 
	C765.409851,710.731628 770.276733,708.931091 774.646912,704.612244 
z"/>
<path fill="#000000" opacity="1.000000" stroke="none" 
	d="
M456.098877,149.864319 
	C467.172516,147.974670 477.849731,146.261841 488.652374,145.714279 
	C496.086731,145.337448 500.048798,148.638962 500.345184,154.873077 
	C500.650696,161.298904 496.754150,164.700775 489.242065,165.428589 
	C449.873993,169.242737 412.663971,180.386017 377.621643,198.732803 
	C373.200165,201.047714 368.887207,203.569870 364.465759,205.884827 
	C358.470398,209.023865 352.231628,207.596832 349.646667,202.605347 
	C346.942505,197.383545 349.110809,191.972687 355.027039,188.439484 
	C386.339447,169.739609 419.993774,157.192474 456.098877,149.864319 
z"/>
<path fill="#000000" opacity="1.000000" stroke="none" 
	d="
M554.469604,166.568604 
	C550.563843,166.103638 547.077637,165.839386 543.627991,165.328384 
	C538.174194,164.520523 535.107788,160.299149 535.638733,154.579208 
	C536.097473,149.637131 539.855225,146.238037 545.282471,146.547043 
	C557.257629,147.228867 569.066772,149.213242 580.834717,151.510086 
	C615.140503,158.205841 647.308105,170.458282 677.363770,188.294724 
	C684.088867,192.285721 686.043091,197.153519 682.884033,202.519211 
	C679.817017,207.728378 674.282959,208.641098 667.637024,204.774399 
	C644.329529,191.213776 619.624390,181.061539 593.581970,174.115189 
	C580.862671,170.722534 567.902710,168.599167 554.469604,166.568604 
z"/>
<path fill="#000000" opacity="1.000000" stroke="none" 
	d="
M724.105347,779.117676 
	C740.553833,779.273438 756.519043,779.432983 772.484314,779.584595 
	C786.064148,779.713562 797.669983,789.314575 800.145325,802.478149 
	C802.618835,815.632385 795.274414,828.797913 782.636658,833.863831 
	C769.230042,839.238037 753.903687,833.998657 746.725037,821.587158 
	C744.046143,816.955566 744.424988,813.383301 747.849487,810.981689 
	C751.373962,808.510132 755.265076,809.582458 758.485657,813.913086 
	C765.125427,822.840942 774.856262,824.396790 781.947021,817.499084 
	C785.732605,813.816589 787.830444,809.442322 785.892029,803.988342 
	C783.629517,797.622375 779.475159,794.181519 772.973999,794.130676 
	C753.497009,793.978394 734.018250,794.055115 714.540344,793.998047 
	C712.391174,793.991699 710.153381,794.025269 708.113220,793.467773 
	C704.252075,792.412781 702.224487,789.648560 702.823669,785.594116 
	C703.378418,781.839600 705.757996,779.753967 709.654297,779.612671 
	C714.310059,779.443848 718.966125,779.282532 724.105347,779.117676 
z"/>
<path fill="#000000" opacity="1.000000" stroke="none" 
	d="
M288.364197,809.336182 
	C290.502686,807.226257 292.287140,805.219788 294.339966,803.541626 
	C298.544556,800.104675 302.561493,800.286926 305.873108,803.831177 
	C308.905151,807.076050 308.910797,811.308350 305.479340,815.059204 
	C301.662628,819.231140 297.567230,823.148315 293.589020,827.172363 
	C289.259766,831.551270 285.012756,836.016357 280.568390,840.275330 
	C276.433075,844.238037 271.781494,844.314270 267.750244,840.258911 
	C259.539307,831.998840 251.460190,823.603333 243.487961,815.112366 
	C239.876343,811.265625 240.107254,806.328003 243.594650,803.099915 
	C246.976486,799.969421 251.096161,800.287170 255.069687,804.202148 
	C258.345917,807.430054 261.449188,810.833435 265.066467,814.616516 
	C266.591888,811.233826 266.623413,808.625610 266.625977,806.016785 
	C266.637970,793.866455 266.624817,781.716064 266.657379,769.565796 
	C266.675079,762.956848 269.389191,759.206116 274.079010,759.172913 
	C278.886963,759.138855 282.104370,763.255188 282.136902,769.786804 
	C282.202423,782.935486 282.150787,796.084656 282.191772,809.233459 
	C282.196259,810.675293 281.811432,812.213745 282.941589,813.825500 
	C285.304657,813.214722 286.475159,811.072815 288.364197,809.336182 
z"/>
<path fill="#000000" opacity="1.000000" stroke="none" 
	d="
M355.365234,282.493958 
	C351.948639,284.606995 348.874512,286.601227 345.719666,288.458313 
	C343.747528,289.619202 341.585083,289.892334 339.575317,288.567230 
	C337.434631,287.155853 337.028687,284.735229 337.912140,282.763702 
	C342.326324,272.913025 339.859680,265.418518 330.839111,259.724731 
	C328.843994,258.465393 328.211975,256.242981 329.050934,253.959198 
	C329.901215,251.644699 331.877075,250.832611 334.212982,250.746231 
	C334.379364,250.740067 334.546844,250.712982 334.711792,250.724411 
	C343.934418,251.363586 350.290222,248.141159 352.276031,238.322372 
	C352.839844,235.534592 354.612640,232.938690 358.046570,232.977951 
	C361.294312,233.015091 362.811188,235.598068 363.303131,238.196884 
	C365.215668,248.300247 371.939026,251.139526 381.147247,250.785172 
	C383.754425,250.684845 386.225830,251.452240 387.092346,254.339996 
	C387.942352,257.172943 386.487946,259.376434 384.251678,260.696899 
	C375.740112,265.722778 373.129730,272.495514 377.048065,281.810883 
	C378.003143,284.081482 377.747345,286.857056 375.219513,288.525848 
	C372.683258,290.200165 370.451935,288.948547 368.288513,287.581757 
	C365.754944,285.981140 363.207764,284.399811 360.716858,282.734741 
	C359.077606,281.638977 357.475250,281.018372 355.365234,282.493958 
z"/>
<path fill="#000000" opacity="1.000000" stroke="none" 
	d="
M750.612671,195.944366 
	C750.993469,189.214111 753.961304,185.650574 758.804016,185.678482 
	C763.627258,185.706299 766.852722,189.449524 766.974609,195.674301 
	C767.134155,203.821671 767.129944,211.975800 767.003296,220.124039 
	C766.911316,226.042618 763.388855,229.955643 758.573181,229.920227 
	C753.853394,229.885513 750.654114,225.877243 750.619080,219.806290 
	C750.573975,211.999420 750.605591,204.192108 750.612671,195.944366 
z"/>
<path fill="#000000" opacity="1.000000" stroke="none" 
	d="
M395.525452,329.590637 
	C392.676941,327.438751 390.603668,328.822510 388.422485,330.197418 
	C386.509583,331.403229 384.503174,333.179138 382.110687,331.261261 
	C380.076294,329.630493 380.370789,327.221283 381.190582,325.280212 
	C382.834747,321.387115 381.785217,318.727417 378.442657,316.443817 
	C376.796509,315.319214 375.310913,313.687561 376.036865,311.412994 
	C376.764435,309.133453 378.835724,308.669647 380.901947,308.786163 
	C384.777649,309.004761 387.180695,307.442993 388.281311,303.641357 
	C388.929779,301.401550 389.876648,299.014526 392.781494,299.044037 
	C395.465149,299.071259 396.358307,301.386658 396.898712,303.422516 
	C397.937622,307.336487 400.555237,308.635803 404.244843,308.714661 
	C406.473389,308.762268 408.687531,309.097900 409.467438,311.641876 
	C410.280396,314.293732 408.259155,315.640076 406.545288,316.863800 
	C403.917267,318.740234 402.070770,320.642456 403.427979,324.265961 
	C404.340363,326.701874 405.425903,329.587280 402.589264,331.512512 
	C399.932770,333.315460 397.995605,330.795258 395.525452,329.590637 
z"/>
<path fill="#000000" opacity="1.000000" stroke="none" 
	d="
M750.699951,369.386688 
	C752.837341,363.801880 755.763245,361.878387 760.545532,362.749329 
	C765.386047,363.630890 766.924316,367.239532 766.998596,371.536316 
	C767.127808,379.013458 767.129272,386.500397 766.892090,393.973938 
	C766.707642,399.788635 763.358154,403.275787 758.566223,403.257721 
	C753.810120,403.239807 750.701477,399.610229 750.650818,393.749573 
	C750.581848,385.772430 750.648376,377.794128 750.699951,369.386688 
z"/>
<path fill="#000000" opacity="1.000000" stroke="none" 
	d="
M832.840698,219.804474 
	C838.291077,224.666901 838.598145,228.779831 833.876038,233.555679 
	C828.741211,238.748993 823.475037,243.819000 818.123352,248.789032 
	C814.335144,252.307114 809.389526,252.125137 806.156738,248.648224 
	C802.914246,245.160843 803.119385,241.206039 806.995789,237.201813 
	C811.961304,232.072586 817.045959,227.058105 822.104919,222.019989 
	C825.052917,219.084152 828.424255,217.815323 832.840698,219.804474 
z"/>
<path fill="#000000" opacity="1.000000" stroke="none" 
	d="
M842.371216,288.478516 
	C847.619263,288.343475 852.428406,288.120544 857.234009,288.181061 
	C861.881653,288.239563 865.054138,291.481750 865.248779,296.008331 
	C865.434021,300.317200 862.264160,304.122253 857.697937,304.270386 
	C849.228943,304.545166 840.743530,304.605408 832.272827,304.411285 
	C828.072998,304.315033 824.836487,300.433655 824.866333,296.413208 
	C824.896606,292.336151 828.108948,288.964691 832.459167,288.691864 
	C835.607727,288.494415 838.773010,288.564087 842.371216,288.478516 
z"/>
<path fill="#000000" opacity="1.000000" stroke="none" 
	d="
M669.078491,304.377716 
	C665.433838,304.398407 662.269836,304.535095 659.115845,304.412018 
	C654.427185,304.228973 651.278931,300.916931 651.315186,296.435272 
	C651.349670,292.171967 654.294006,288.882019 658.872314,288.772552 
	C667.514709,288.566010 676.167908,288.586426 684.811584,288.761169 
	C688.850281,288.842804 691.746643,292.226837 691.932068,296.365356 
	C692.112793,300.398254 688.987976,303.973572 684.525391,304.228699 
	C679.551575,304.513092 674.551941,304.347321 669.078491,304.377716 
z"/>
<path fill="#000000" opacity="1.000000" stroke="none" 
	d="
M812.619995,359.376678 
	C810.367188,357.133118 808.230347,355.255920 806.391296,353.122101 
	C803.609741,349.894775 803.708618,345.599518 806.643005,342.771515 
	C809.732544,339.793945 813.674500,338.685303 816.963501,341.674622 
	C823.099731,347.251495 828.876099,353.258392 834.450623,359.405212 
	C837.315369,362.564026 836.749817,366.306671 833.651428,369.216980 
	C830.438660,372.234741 826.614807,372.469086 823.262878,369.673981 
	C819.572205,366.596497 816.315247,362.999054 812.619995,359.376678 
z"/>
<path fill="#000000" opacity="1.000000" stroke="none" 
	d="
M682.210815,366.346436 
	C681.327271,362.945648 682.247681,360.388733 684.385986,358.254669 
	C689.433411,353.217224 694.422180,348.114563 699.623718,343.240021 
	C703.470337,339.635223 708.188538,339.626953 711.137756,342.828003 
	C714.177124,346.126923 713.974670,350.684052 710.399231,354.360748 
	C705.774902,359.116058 701.059998,363.786041 696.297363,368.403320 
	C691.198608,373.346588 686.467651,372.731445 682.210815,366.346436 
z"/>
<path fill="#000000" opacity="1.000000" stroke="none" 
	d="
M712.736938,241.814606 
	C714.109985,246.568695 712.261108,249.706070 708.549011,251.711563 
	C704.936279,253.663345 701.810547,252.198441 699.131287,249.527725 
	C694.313904,244.725677 689.329102,240.073151 684.767273,235.038315 
	C680.337036,230.148712 682.276306,223.320297 688.231567,221.471481 
	C690.485291,220.771820 692.628296,220.895111 694.281006,222.540726 
	C700.496582,228.729752 707.166260,234.484985 712.736938,241.814606 
z"/>
</svg>